<svg width="36" height="32" viewBox="0 0 36 32" fill="none" xmlns="http://www.w3.org/2000/svg">
<path d="M14.1667 0.333313C12.3102 0.333313 10.5297 1.07081 9.21694 2.38357C7.90418 3.69632 7.16669 5.4768 7.16669 7.33331C7.16669 9.18983 7.90418 10.9703 9.21694 12.2831C10.5297 13.5958 12.3102 14.3333 14.1667 14.3333C16.0232 14.3333 17.8037 13.5958 19.1164 12.2831C20.4292 10.9703 21.1667 9.18983 21.1667 7.33331C21.1667 5.4768 20.4292 3.69632 19.1164 2.38357C17.8037 1.07081 16.0232 0.333313 14.1667 0.333313ZM27.2917 16.0833C22.9167 16.0833 19.4167 19.5833 19.4167 23.9583C19.4167 28.3333 22.9167 31.8333 27.2917 31.8333C31.6667 31.8333 35.1667 28.3333 35.1667 23.9583C35.1667 19.5833 31.6667 16.0833 27.2917 16.0833ZM14.1667 17.8333C6.43169 17.8333 0.166687 20.9658 0.166687 24.8333V28.3333H16.7917C16.2141 26.947 15.9167 25.4601 15.9167 23.9583C15.9242 21.8834 16.4991 19.85 17.5792 18.0783C16.4767 17.9383 15.3567 17.8333 14.1667 17.8333ZM27.2917 18.7083C30.1967 18.7083 32.5417 21.0533 32.5417 23.9583C32.5417 24.9383 32.2792 25.8483 31.8067 26.5833L24.6667 19.4433C25.4017 18.9708 26.3117 18.7083 27.2917 18.7083ZM22.7767 21.3333L29.9167 28.4733C29.1817 28.9458 28.2717 29.2083 27.2917 29.2083C24.3867 29.2083 22.0417 26.8633 22.0417 23.9583C22.0417 22.9783 22.3042 22.0683 22.7767 21.3333Z" fill="white"/>
</svg>
