<svg width="34" height="33" viewBox="0 0 34 33" fill="none" xmlns="http://www.w3.org/2000/svg">
<path d="M33.6875 18.0312L31.8125 19.9062L27.9687 16.0625L29.8437 14.1875C30.0365 13.9985 30.2957 13.8927 30.5656 13.8927C30.8356 13.8927 31.0947 13.9985 31.2875 14.1875L33.6875 16.5875C34.0812 16.9813 34.0812 17.6375 33.6875 18.0312ZM15.5 28.5125L26.8625 17.15L30.7062 20.9938L19.3625 32.375H15.5V28.5125ZM15.5 19.25C7.2125 19.25 0.5 22.6063 0.5 26.75V30.5H11.75V26.9563L19.25 19.4562C18.0125 19.3062 16.7562 19.25 15.5 19.25ZM15.5 0.5C13.5109 0.5 11.6032 1.29018 10.1967 2.6967C8.79018 4.10322 8 6.01088 8 8C8 9.98912 8.79018 11.8968 10.1967 13.3033C11.6032 14.7098 13.5109 15.5 15.5 15.5C17.4891 15.5 19.3968 14.7098 20.8033 13.3033C22.2098 11.8968 23 9.98912 23 8C23 6.01088 22.2098 4.10322 20.8033 2.6967C19.3968 1.29018 17.4891 0.5 15.5 0.5Z" fill="white"/>
</svg>
