<svg width="31" height="33" viewBox="0 0 31 33" fill="none" xmlns="http://www.w3.org/2000/svg">
<path d="M23.7083 15.5C18.0646 15.5 13.5 20.0646 13.5 25.7083C13.5 26.2042 13.5437 26.6854 13.6167 27.1667H0.375V25.7083L3.29167 22.7917V14.0417C3.29167 9.52083 6.25208 5.53958 10.5833 4.25625V3.83333C10.5833 2.22916 11.8958 0.916664 13.5 0.916664C15.1042 0.916664 16.4167 2.22916 16.4167 3.83333V4.25625C20.7479 5.53958 23.7083 9.52083 23.7083 14.0417V15.5ZM10.5833 28.625C10.5833 29.3985 10.8906 30.1404 11.4376 30.6874C11.9846 31.2344 12.7265 31.5417 13.5 31.5417C14.0688 31.5417 14.5938 31.3667 15.0458 31.0896C14.5792 30.3312 14.2292 29.5 13.9375 28.625H10.5833ZM30.6646 27.6333C30.8104 27.7354 30.8396 27.9396 30.7521 28.1L29.2938 30.6229C29.2063 30.8125 29.0167 30.8125 28.8563 30.8125L27.0333 30.0396C26.625 30.3312 26.2604 30.5792 25.8083 30.7687L25.5312 32.6937C25.5021 32.8687 25.3563 33 25.1667 33H22.25C22.075 33 21.9146 32.8687 21.8854 32.6937L21.6229 30.7687C21.1562 30.5792 20.7917 30.3312 20.3833 30.0396L18.6042 30.8125C18.4146 30.8125 18.2104 30.8125 18.1229 30.6229L16.6646 28.1C16.623 28.0241 16.6091 27.9361 16.625 27.851C16.641 27.766 16.6859 27.6891 16.7521 27.6333L18.2979 26.4375C18.2688 26.1896 18.2396 25.9562 18.2396 25.7083C18.2396 25.4604 18.2688 25.2271 18.2979 24.9792L16.7521 23.7833C16.6208 23.6812 16.5771 23.5208 16.6646 23.3167L18.1229 20.8083C18.2104 20.6479 18.4146 20.6042 18.6042 20.6479L20.3833 21.3333C20.7917 21.0854 21.1562 20.8375 21.6229 20.6625L21.8854 18.7229C21.9146 18.5479 22.075 18.4167 22.25 18.4167H25.1667C25.3563 18.4167 25.5021 18.5479 25.5312 18.7229L25.8083 20.6625C26.2604 20.8375 26.625 21.0854 27.0333 21.3333L28.8563 20.6479C29.0167 20.6042 29.2063 20.6479 29.2938 20.8083L30.7521 23.3167C30.8396 23.5208 30.8104 23.6812 30.6646 23.7833L29.1333 24.9792C29.1898 25.4636 29.1898 25.953 29.1333 26.4375L30.6646 27.6333ZM26.2604 25.7083C26.2604 24.2937 25.1229 23.1562 23.7083 23.1562C22.2938 23.1562 21.1562 24.2937 21.1562 25.7083C21.1562 27.1229 22.3083 28.2604 23.7083 28.2604C25.1083 28.2604 26.2604 27.1229 26.2604 25.7083Z" fill="white"/>
</svg>
